<svg xmlns="http://www.w3.org/2000/svg" xmlns:xlink="http://www.w3.org/1999/xlink" id="visual" viewBox="0 0 900 600" width="900" height="600" version="1.1"><g transform="translate(900, 600)"><path d="M-226 0C-221.2 -29 -216.4 -58 -208.8 -86.5C-201.2 -114.9 -190.9 -142.8 -173.9 -173.9C-157 -205.1 -133.6 -239.4 -103.5 -249.8C-73.4 -260.2 -36.7 -246.6 0 -233L0 0Z" fill="#FBAE3C"/></g><g transform="translate(0, 0)"><path d="M250 0C258.4 39 266.8 78 249.8 103.5C232.9 128.9 190.7 140.8 163.3 163.3C136 185.9 123.5 219 98.7 238.4C74 257.7 37 263.4 0 269L0 0Z" fill="#FBAE3C"/></g></svg>