<svg xmlns="http://www.w3.org/2000/svg" fill="none" width="120" height="120" viewBox="0 0 90 10">
    <g transform="matrix(1 0 0 1 45 10)">
        <path transform=" translate(-45.94, 21.75)" d="M 31.38 -23.65 h -2.29 q -0.82 0 -1.37 0.54 q -0.55 0.55 -0.55 1.34 q 0 0.82 0.55 1.36 q 0.55 0.55 1.37 0.55 h 2.29 q 3.31 0 5.64 2.36 q 2.36 2.36 2.36 5.67 q 0 3.32 -2.36 5.68 q -2.33 2.32 -5.64 2.32 H 4.65 q -0.79 0 -1.37 0.58 q -0.55 0.55 -0.55 1.34 q 0 0.78 0.55 1.36 q 0.58 0.55 1.37 0.55 h 26.73 q 4.88 0 8.34 -3.49 q 3.48 -3.45 3.48 -8.34 q 0 -4.88 -3.48 -8.37 q -3.46 -3.45 -8.34 -3.45 Z m -16.82 3.79 h 2.29 q 0.79 0 1.37 -0.55 q 0.54 -0.54 0.54 -1.36 q 0 -0.79 -0.54 -1.34 q -0.58 -0.54 -1.37 -0.54 h -2.29 q -3.31 0 -5.67 -2.36 q -2.33 -2.36 -2.33 -5.67 q 0 -3.32 2.33 -5.68 q 2.36 -2.36 5.67 -2.36 h 26.73 q 0.79 0 1.33 -0.54 q 0.58 -0.55 0.58 -1.34 q 0 -0.78 -0.58 -1.36 q -0.54 -0.55 -1.33 -0.55 H 14.56 q -4.89 0 -8.34 3.45 q -3.49 3.49 -3.49 8.38 q 0 4.88 3.49 8.37 q 3.45 3.45 8.34 3.45 Z m 36.03 -23.65 q -0.79 0 -1.37 0.55 q -0.55 0.58 -0.55 1.36 v 39.69 q 0 0.78 0.55 1.36 q 0.58 0.55 1.37 0.55 q 0.78 0 1.33 -0.55 q 0.58 -0.58 0.58 -1.36 V -41.6 q 0 -0.78 -0.58 -1.36 q -0.55 -0.55 -1.33 -0.55 Z m 38.55 9.54 v -7.63 q 0 -0.78 -0.58 -1.36 q -0.55 -0.55 -1.33 -0.55 q -0.79 0 -1.34 0.55 q -0.58 0.58 -0.58 1.36 v 7.63 q 0 4.27 -3.01 7.28 q -3.04 3.04 -7.28 3.04 H 59.75 q -0.79 0 -1.37 0.54 q -0.55 0.55 -0.55 1.34 q 0 0.82 0.55 1.36 q 0.58 0.55 1.37 0.55 h 15.27 q 4.24 0 7.28 3.04 q 3.01 3.01 3.01 7.28 v 7.63 q 0 0.78 0.58 1.36 q 0.55 0.55 1.34 0.55 q 0.78 0 1.33 -0.55 q 0.58 -0.58 0.58 -1.36 v -7.63 q 0 -3.86 -1.95 -7.14 q -1.88 -3.21 -5.09 -5.09 q 3.21 -1.85 5.09 -5.06 q 1.95 -3.32 1.95 -7.14 Z"/>
    </g>
    <style>
        path { fill: #00204a; }
        @media (prefers-color-scheme: dark) {
            path { fill: #FFF; }
        }
    </style>
</svg>
