<svg xmlns="http://www.w3.org/2000/svg" width="640" height="480" viewBox="0 0 420 120" xml:space="preserve" style="stroke:none;stroke-width:1;stroke-dasharray:none;stroke-linecap:butt;stroke-dashoffset:0;stroke-linejoin:miter;stroke-miterlimit:4"><rect style="fill:#ffc727;opacity:1" x="-30.155" y="-6.245" rx="0" ry="0" width="60.31" height="12.49" transform="translate(215.97 58.86)"/><path style="fill:#ffc727;opacity:1" transform="translate(187.74 138.67)" d="M14.25-73.66 12.56-57.7-8.28 73.66h-5.97L2.21-57.7l1.33-15.96h10.71z"/><path style="fill:#ffc727;opacity:1" transform="translate(244.19 138.67)" d="M14.26 73.66H8.29L-12.56-57.7l-1.69-15.96h10.71L-2.2-57.7 14.26 73.66z"/><rect style="fill:#ffc727;opacity:1" x="-33.26" y="-1.875" rx="0" ry="0" width="66.52" height="3.75" transform="translate(215.11 172.72)"/><path style="fill:#000;opacity:.1" transform="translate(195.97 72.7)" d="M-6.02 7.69H4.33L6.02-7.69H-4.69L-6.02 7.69z"/><path style="fill:#000;opacity:.1" transform="translate(235.96 72.7)" d="M6.03 7.69H-4.33L-6.02-7.69H4.69L6.03 7.69z"/><path style="fill:#f7a9a0;opacity:1" transform="translate(-394 -233)" d="M516 306.89c.66-2 36-48.67 38.4-49.57.27-.12 16.06 11.12 16.06 11.12.65.87 30.67-5.48 30.67-5.48l.3 36.21-54.66-1.17s-7.38 4.34-14.14 7.88a79.18 79.18 0 0 1-8.89 4.31c-2.74.72-8.39-1.32-7.74-3.3Z"/><path style="fill:#fff;opacity:1" transform="translate(-394 -233)" d="M523.72 310.2a78.49 78.49 0 0 0 8.88-4.31c6.75-3.53 14.14-7.88 14.14-7.88l12.17.26 19-30.74c-4.18.74-7.3 1.18-7.51.91 0 0-15.78-11.24-16.06-11.12-2.42.9-37.74 47.57-38.4 49.57s5.06 4.02 7.78 3.31Z"/><path style="fill:#a6a6a6;opacity:1" transform="translate(-394 -233)" d="M515.69 307c.7-2 36.18-48.69 38.66-49.62.94-.35 8.66 4.42 16.13 11.11l-22.91 30.05s-21.14 11.19-24 11.92S515 309 515.69 307Z"/><path style="fill:#263238;opacity:1" transform="translate(-394 -233)" d="M518.07 307.7c6.14-7.67 30.18-39.2 35.67-47.26 0-.06 0-.09 0 0-6.25 7.47-30 39.19-35.75 47.19-.17.14-.05.23.08.07Z"/><path style="fill:#263238;opacity:1" transform="translate(-393.99 -233)" d="M527.56 308.68a7.86 7.86 0 0 0 1.65-6.13 7.64 7.64 0 0 0-2.84-4.92s-.12.05-.07.09a9.13 9.13 0 0 1 1.17 10.89.06.06 0 1 0 .09.07Z"/><path style="fill:#263238;opacity:1" transform="translate(-394 -233)" d="M544.92 300.34c2.42-3.1 4.08-7.56 3-11.46 0-.15-.26-.09-.28 0a53.74 53.74 0 0 1-3.15 11.18.25.25 0 0 0 .43.28Zm-2.78 1.66c2.42-3.1 4.08-7.56 3-11.46 0-.15-.26-.09-.28 0a53.74 53.74 0 0 1-3.15 11.18.25.25 0 0 0 .43.28Zm-2.78 1.74c2.42-3.1 4.08-7.56 3-11.46 0-.15-.26-.09-.28 0a53.74 53.74 0 0 1-3.15 11.18.25.25 0 0 0 .43.28Zm-2.78 1.7c2.42-3.1 4.08-7.57 3-11.46 0-.15-.26-.09-.28 0a53.74 53.74 0 0 1-3.15 11.18.25.25 0 0 0 .43.28Z"/><path style="fill:#263238;opacity:1" transform="translate(-393.99 -233)" d="M559.65 268.09c2.66-3.52-2.8-7.66-5.47-4.14s2.82 7.66 5.47 4.14Z"/><path style="fill:#263238;opacity:1" transform="translate(-394 -233)" d="M550.7 310.08c2.52-.59 2.75-3.56 2.13-5.57a20.71 20.71 0 0 0-5.84-8.94.1.1 0 0 0-.16 0 .49.49 0 0 0-.69.37c-.15 3.4-.73 7 .16 10.37.52 1.98 2.02 4.32 4.4 3.77Zm-3.73-8.9c0-1.68.15-3.34.12-5a61.64 61.64 0 0 1 3.3 5.3 22 22 0 0 1 1.24 2.75c.52 1.46.79 6.52-2.85 4.25-2.01-1.28-1.86-5.31-1.78-7.3Z"/><path style="fill:#263238;opacity:1" transform="translate(-394 -233)" d="M551.74 286.91c-2.49 2.41-3.85 5.81-5.47 8.81a.47.47 0 0 0 .39.66c0 .07 0 .13.13.11a20.6 20.6 0 0 0 9.61-4.64c1.57-1.41 2.9-4.07 1-5.87s-4.2-.47-5.66.93Zm3.22-.53c4.3-.08 1.45 4.12.25 5.11a21 21 0 0 1-2.48 1.71 61.69 61.69 0 0 1-5.55 2.84c.89-1.42 1.64-2.91 2.48-4.36.99-1.68 2.93-5.26 5.34-5.3Z"/><path style="fill:#37474f;opacity:1" transform="translate(-394 -233)" d="M602.8 251.86h24.55s25.67-12.34 46.35-7.37c23.7 5.7 26.73 35.48 9 46-22.45 13.33-122.35 10.75-122.35 10.75l21.6-36.6s33.22-7 63.35-6l-42.51 5.79Z"/><path style="fill:#263238;opacity:1" transform="translate(-394 -233)" d="M580.52 267a1.33 1.33 0 0 0 .05-.19v-.15c0-.12.07-.24.1-.36s.16-.47.25-.71.19-.47.3-.7a5.47 5.47 0 0 1 .41-.65s0 0 .06 0h.11c3.66-.68 28.48-4.23 32.17-4.65s7.46-.77 11.19-1.08a220.33 220.33 0 0 1 22.4-.81l2.1.06c.15-.05.31-.07.46-.11.36-.09.71-.17 1.08-.24.67-.13 1.35-.23 2-.34 1.41-.21 2.83-.36 4.24-.63.08 0 .12.12 0 .14-1.41.31-2.8.72-4.22 1l-1.22.26c2.74.14 5.47.35 8.21.6.08 0 .08.14 0 .14-3.72-.22-7.47-.25-11.2-.19s-7.4.15-11.1.36c-7.47.43-14.94 1.1-22.38 1.88-4.18.43-29.49 4.13-33.69 4.3h-.05a1.69 1.69 0 0 1-.12.28c-.11.23-.23.46-.35.68s-.24.43-.38.63-.13.2-.2.3l-.11.16a.83.83 0 0 0-.11.15c.1.03-.05-.04 0-.13Z"/><path style="fill:#263238;opacity:1" transform="translate(-394 -233)" d="M568.15 299c1.34-2.14 2.48-4.43 3.7-6.63l3.69-6.64c2.46-4.41 11.28-19.23 12.15-20.27a.08.08 0 0 1 .14.08c-.41 1.15-5.92 11-7.19 13.16-2.53 4.38-5.19 8.67-7.82 13-.75 1.24-1.52 2.46-2.28 3.68s-1.57 2.44-2.27 3.7c-.04.09-.16.02-.12-.08Z"/><path style="fill:#263238;opacity:1" transform="translate(-394 -233.01)" d="M587.94 269.18c2.2-.53 4.46-.87 6.69-1.3l6.7-1.25q6.7-1.25 13.43-2.38c8.93-1.51 17.91-2.76 26.94-3.62 5.09-.49 10.2-.81 15.3-1.19.11 0 .1.17 0 .17-9.09.41-18.17 1.64-27.17 2.94s-17.81 2.68-26.69 4.18c-2.5.42-5 .85-7.51 1.29s-5.09 1-7.65 1.31c-.1.01-.14-.13-.04-.15Z"/><path style="fill:#f7a9a0;opacity:1" transform="translate(-393.99 -233)" d="M562.55 426c2.15-.22 55.67-24.27 57.13-26.48.56-.83-2.49-8.83-6.45-18.39-.85-2.07-1.75-4.2-2.67-6.35-6-14-12.62-28.71-12.62-28.71l-35.84 16 13.6 28.27 3 6.21s-16.37 18.37-17.71 21-.59 8.66 1.56 8.45Z"/><path style="fill:#fff;opacity:1" transform="translate(-393.99 -233)" d="M562.55 426c2.15-.22 55.67-24.27 57.13-26.48.68-1-4-12.62-9.12-24.74l-34.86 15.55 3 6.21s-16.37 18.37-17.71 21-.59 8.67 1.56 8.46Z"/><path style="fill:#a6a6a6;opacity:1" transform="translate(-394 -233)" d="M562.55 426c2.15-.22 55.67-24.27 57.13-26.48.56-.83-2.49-8.83-6.45-18.39l-34.55 15.41s-16.37 18.37-17.71 21-.57 8.67 1.58 8.46Z"/><path style="fill:#263238;opacity:1" transform="translate(-394 -233)" d="M562.36 423.51c8.87-4.25 45-20.57 54.15-24.1.07 0 .09 0 0 .06-8.7 4.41-45 20.43-54.11 24.19-.17.08-.23-.06-.04-.15Zm1.19-9.51a7.89 7.89 0 0 1 6.35-.22 7.66 7.66 0 0 1 4.16 3.89c0 .05-.08.1-.11.05a9.14 9.14 0 0 0-10.35-3.61.06.06 0 1 1-.05-.11Zm12.05-15c3.57-1.66 8.31-2.27 11.86-.33.13.07 0 .27-.11.26a55.06 55.06 0 0 0-11.61.54.25.25 0 0 1-.14-.47Zm-2.28 2.32c3.57-1.67 8.3-2.27 11.85-.34.14.08 0 .27-.1.27a53.82 53.82 0 0 0-11.62.54.25.25 0 0 1-.13-.47Zm-2.32 2.32c3.57-1.66 8.3-2.26 11.85-.33.14.08 0 .27-.1.26a55 55 0 0 0-11.61.54.25.25 0 0 1-.14-.47Zm-2.25 2.36c3.56-1.66 8.3-2.27 11.85-.33.14.07 0 .27-.1.26a55.13 55.13 0 0 0-11.62.54.25.25 0 0 1-.13-.47Z"/><path style="fill:#263238;opacity:1" transform="translate(-394 -233.01)" d="M610.39 391.92c4-1.8 6.84 4.47 2.8 6.27s-6.84-4.47-2.8-6.27Z"/><path style="fill:#263238;opacity:1" transform="translate(-394 -233)" d="M570.07 396.29c3.06 1.63 6.72 1.87 10.07 2.49.35.07.56-.28.52-.58a.1.1 0 0 0 .06-.15 20.66 20.66 0 0 0-7.39-7.72c-1.82-1.06-4.77-1.5-5.91.82s.86 4.19 2.65 5.14Zm-1.5-2.9c-1.4-4.07 3.47-2.65 4.78-1.82a21.49 21.49 0 0 1 2.4 1.84 61.3 61.3 0 0 1 4.42 4.41c-1.63-.41-3.28-.67-4.92-1-1.95-.43-5.91-1.19-6.68-3.43Z"/><path style="fill:#263238;opacity:1" transform="translate(-394 -233)" d="M592.44 390c-1.33-2.22-4.23-1.52-6-.31a20.67 20.67 0 0 0-6.7 8.32.11.11 0 0 0 .08.15.48.48 0 0 0 .56.53c3.29-.9 6.91-1.46 9.82-3.35 1.74-1.07 3.51-3.21 2.24-5.34Zm-7.32 6.3c-1.6.49-3.22.89-4.81 1.43a61.06 61.06 0 0 1 4-4.77 20.52 20.52 0 0 1 2.24-2c1.23-.95 6-2.78 4.92 1.39-.55 2.3-4.47 3.4-6.35 3.98Z"/><path style="fill:#37474f;opacity:1" transform="translate(-394 -233)" d="m609.74 371.49-40.31 18.23s-48-92.1-49.24-120.29c-1.07-24 15.63-33.26 69.63-17.74l13.23.17V261c-5.81.76-21.3 3.2-21.3 3.2-11.27 4.25-14.9 6-14.72 6.37 28.11 56.75 42.71 100.92 42.71 100.92Z"/><path style="fill:#263238;opacity:1" transform="translate(-394 -233)" d="M560.43 260.44c1.63 2.17 3.13 4.43 4.57 6.73a97.12 97.12 0 0 1 27.47-7.24c2.66-.33 5.32-.56 8-.71.11 0 .11.16 0 .17a120.47 120.47 0 0 0-28 5.32c-2.51.77-5 1.67-7.45 2.55 1.73 2.77 3.36 5.61 4.93 8.46a167.79 167.79 0 0 1 7.88 16.46c1.3 3.11 2.56 6.25 3.67 9.43 0 .09-.12.15-.15.06q-7.35-16.47-16.09-32.24c-1.65-3-3.37-5.9-5-8.89-.02-.08.11-.18.17-.1Z"/><path style="fill:#263238;opacity:1" transform="translate(-394 -233.01)" d="M568.55 380c2.35-.92 4.63-2.06 6.93-3.1l6.92-3.11c4.61-2.06 20.55-8.66 21.87-9 .08 0 .13.1.06.15-1 .67-11.3 5.24-13.63 6.24-4.65 2-9.35 3.84-14 5.73-1.34.54-2.69 1.05-4 1.58s-2.72 1-4 1.6c-.18.05-.23-.09-.15-.09Z"/><path style="fill:#263238;opacity:1" transform="translate(-394 -233)" d="M560.63 264.6c3.18 6 5.89 12.37 8.65 18.61s5.43 12.48 8 18.76q7.76 18.78 14.45 38c2.54 7.24 4.9 14.53 7.21 21.84 0 .1-.13.14-.16 0-4.27-12.92-8.9-25.73-13.73-38.46s-9.94-25.28-15.36-37.73q-2.28-5.25-4.64-10.46c-1.57-3.47-3.2-6.93-4.67-10.45-.03-.13.17-.25.25-.11Z"/><path style="fill:#f7a9a0;opacity:1" transform="translate(-393.99 -233)" d="M586.16 188.18c-18 13.92-34.44 29.85-36.37 39.22-1.22 5.89 3.3 15.35 6.6 20.94 1.6 2.72 27.07-13.58 24.35-15.59-6.73-5-8.06-7.2-7.68-8.51.25-.85 18.61-23.66 23.18-33.28 6.37-13.4-2.19-8.87-10.08-2.78Z"/><path style="fill:#ffc727;opacity:1" transform="translate(-394 -233)" d="m560.22 208.85 17.14 11.65s16.09-20.41 20-30.64-.38-10.35-10.49-3.1-26.65 22.09-26.65 22.09Z"/><path style="fill:#ffc727;opacity:1" transform="translate(-394 -233)" d="m560.22 208.85 17.14 11.65s16.09-20.41 20-30.64-.38-10.35-10.49-3.1-26.65 22.09-26.65 22.09Z"/><path style="fill:#030402;opacity:.1" transform="translate(-394 -233)" d="m590.39 192.7-1.86-.48.46-1.86a.37.37 0 0 0-.26-.44.37.37 0 0 0-.44.27l-.55 2.21v.08l2.21.57a.39.39 0 0 0 .28 0 .41.41 0 0 0 .16-.22.36.36 0 0 0 0-.13Zm1.45-4.24a.31.31 0 0 0-.35-.27.32.32 0 0 0-.27.36l.51 3.56a.31.31 0 0 0 .35.27h.11a.31.31 0 0 0 .15-.31Zm3.25 0a.2.2 0 0 1 0-.05h-.05l-2.21-.57a.37.37 0 0 0-.44.26.36.36 0 0 0 .26.44l1.86.48-.46 1.86a.35.35 0 0 0 .26.44.36.36 0 0 0 .27 0 .37.37 0 0 0 .17-.22l.54-2.22v-.08Zm-16.47 8.88a.36.36 0 0 0-.45-.23l-2.16.73.7 2.17a.48.48 0 0 0 .19.21.36.36 0 0 0 .5-.44l-.59-1.82 1.81-.61a.35.35 0 0 0 0-.01Zm3 1.4a.31.31 0 0 0-.44 0l-2.74 2.34a.31.31 0 0 0 0 .44.2.2 0 0 0 .09.07.3.3 0 0 0 .34 0l2.74-2.34a.32.32 0 0 0-.04-.51Zm1.82 2.87a.13.13 0 0 0 0-.06l-.7-2.16a.37.37 0 0 0-.46-.23.35.35 0 0 0-.23.45l.59 1.83-1.81.61a.35.35 0 0 0-.24.45.37.37 0 0 0 .46.23l2.16-.73h.06a.11.11 0 0 1 0-.06s.12-.3.12-.33Zm-15.15 9 1.35-1.36a.37.37 0 0 0 0-.52.38.38 0 0 0-.51 0l-1.6 1.63v.24l1.6 1.62a.35.35 0 0 0 .26.1.36.36 0 0 0 .25-.61Zm4.61-2a.32.32 0 0 0-.41.17l-1.4 3.32a.31.31 0 0 0 .17.41.25.25 0 0 0 .12 0 .33.33 0 0 0 .29-.18l1.39-3.33a.31.31 0 0 0-.21-.3Zm3 1.92v-.16l-1.6-1.63a.38.38 0 0 0-.51 0 .37.37 0 0 0 0 .52l1.35 1.36-1.53 1.38a.36.36 0 0 0 0 .51.35.35 0 0 0 .26.1.35.35 0 0 0 .25-.1l1.6-1.62v-.05a.1.1 0 0 0 .1-.22Z"/><path style="fill:#263238;opacity:1" transform="translate(-394 -233)" d="M579.71 216.23a146.63 146.63 0 0 1-15.15-10.49c-.06 0 0-.14.08-.09 1.3 1 9.15 6 15.16 10.47.07.05-.01.15-.09.11Z"/><path style="fill:#000;opacity:.1" transform="translate(-394 -233)" d="M598.69 185a21.18 21.18 0 0 1-1.36 4.9c-3.88 10.23-20 30.64-20 30.64l-6.84-4.65Z"/><path style="fill:#ffc727;opacity:1" transform="translate(-394 -233)" d="M637.64 251.61c-.13.16-57.78 1.38-58.37.83-.81-.78 4.53-55 12.88-68.44 2.08-3.36 11.91-5.85 16.31-1.29 17.02 17.62 29.61 68.29 29.18 68.9Z"/><path style="fill:#030402;opacity:.1" transform="translate(-394 -233)" d="m590.39 192.7-1.71-.44c-.08.23-.15.46-.22.69l1.75.45a.39.39 0 0 0 .28 0 .41.41 0 0 0 .16-.22.36.36 0 0 0-.26-.48Zm1.45-4.24a.31.31 0 0 0-.35-.27.32.32 0 0 0-.27.36l.51 3.56a.31.31 0 0 0 .35.27h.11a.31.31 0 0 0 .15-.31Zm3.25 0a.2.2 0 0 1 0-.05h-.05l-2.21-.57a.37.37 0 0 0-.44.26.36.36 0 0 0 .26.44l1.86.48-.46 1.86a.35.35 0 0 0 .26.44.36.36 0 0 0 .27 0 .37.37 0 0 0 .17-.22l.54-2.22v-.08ZM614.54 211l-1.86-.48.46-1.86a.36.36 0 0 0-.26-.44.37.37 0 0 0-.44.26l-.54 2.21a.13.13 0 0 0 0 .06v.06l2.21.57a.39.39 0 0 0 .28 0 .34.34 0 0 0 .16-.21.35.35 0 0 0-.01-.17Zm1.45-4.25a.3.3 0 0 0-.34-.26.31.31 0 0 0-.28.35l.51 3.57a.3.3 0 0 0 .35.26.21.21 0 0 0 .11 0 .32.32 0 0 0 .16-.31Zm3.25 0h-.05l-2.21-.58a.38.38 0 0 0-.44.27.37.37 0 0 0 .26.44l1.86.47-.66 1.55a.36.36 0 0 0 .26.44.35.35 0 0 0 .28 0 .37.37 0 0 0 .16-.22l.54-2.21v-.12s.01-.06 0-.06Zm-31.38 25.79L586 232l.46-1.86a.37.37 0 0 0-.26-.44.4.4 0 0 0-.45.27l-.54 2.21a.11.11 0 0 0 0 .05v.06h.06l2.21.57a.36.36 0 0 0 .27 0 .38.38 0 0 0 .17-.22.37.37 0 0 0-.06-.12Zm1.46-4.24a.31.31 0 0 0-.32-.3.33.33 0 0 0-.27.36l.5 3.56a.32.32 0 0 0 .36.27.21.21 0 0 0 .11 0 .31.31 0 0 0 .15-.31Zm3.25 0a.2.2 0 0 1 0-.05h-.06l-2.2-.57a.38.38 0 0 0-.44.26.35.35 0 0 0 .26.44l1.86.48-.46 1.86a.35.35 0 0 0 .26.44.36.36 0 0 0 .27 0 .41.41 0 0 0 .17-.22l.54-2.22-.2-.42Zm22.32 19.19L613 247l.46-1.86a.36.36 0 1 0-.7-.18l-.55 2.22a.11.11 0 0 0 0 .05v.06l2.21.57a.37.37 0 0 0 .27-.05.35.35 0 0 0-.1-.65Zm1.46-4.25a.31.31 0 0 0-.35-.24.31.31 0 0 0-.27.35l.5 3.57a.31.31 0 0 0 .36.26.35.35 0 0 0 .11 0 .33.33 0 0 0 .15-.31Zm3.25 0a.43.43 0 0 1 0-.05h-.12l-2.2-.57a.36.36 0 1 0-.18.7l1.86.48-.46 1.86a.35.35 0 0 0 .26.44.36.36 0 0 0 .27-.05.32.32 0 0 0 .17-.22l.54-2.21s-.13-.34-.14-.35Zm-11.7-59.69a.37.37 0 0 0-.46-.23l-2.16.73h-.05v.05l.7 2.17a.39.39 0 0 0 .19.21.36.36 0 0 0 .27 0 .37.37 0 0 0 .23-.46l-.6-1.82 1.82-.61a.37.37 0 0 0 .06-.01Zm2.53 1.35-2.74 2.35a.31.31 0 0 0 0 .44.31.31 0 0 0 .09.07.32.32 0 0 0 .35 0l2.74-2.34a5.71 5.71 0 0 0-.44-.49Zm.89 1.09.54 1.65-1.82.61a.35.35 0 0 0-.23.45.35.35 0 0 0 .18.21.39.39 0 0 0 .28 0l2.16-.73h.05v-.15c-.26-.83-.71-1.43-1.16-2.03Zm-10.89 30.46a.38.38 0 0 0-.46-.23l-2.16.73v.05l.7 2.17a.39.39 0 0 0 .19.21.36.36 0 0 0 .5-.44l-.59-1.82 1.82-.61a.37.37 0 0 0 0-.03Zm2.94 1.41a.31.31 0 0 0-.44 0l-2.74 2.34a.31.31 0 0 0 0 .44.2.2 0 0 0 .09.07.3.3 0 0 0 .34 0l2.74-2.35a.3.3 0 0 0 .01-.47Zm1.82 2.86a.11.11 0 0 0 0-.05l-.7-2.17a.37.37 0 0 0-.46-.23.36.36 0 0 0-.23.46l.59 1.82-1.81.61a.35.35 0 0 0-.23.46.32.32 0 0 0 .18.2.36.36 0 0 0 .27 0l2.16-.73h.06s.17-.31.17-.34Zm21.07 11.91a.37.37 0 0 0-.46-.23l-2.16.73h-.05v.08a.09.09 0 0 0 0 .05l.7 2.17a.43.43 0 0 0 .19.21.41.41 0 0 0 .27 0 .37.37 0 0 0 .23-.46l-.6-1.82 1.82-.61a.37.37 0 0 0 .06-.09Zm3 1.4a.33.33 0 0 0-.45 0l-2.81 2.33a.32.32 0 0 0 0 .45.31.31 0 0 0 .09.07.34.34 0 0 0 .35 0l2.74-2.35a.3.3 0 0 0 .03-.47Zm1.8 2.8-.7-2.17a.38.38 0 0 0-.46-.23.37.37 0 0 0-.23.46l.6 1.82-1.82.61a.37.37 0 0 0-.23.46.42.42 0 0 0 .18.21.39.39 0 0 0 .28 0l2.16-.73h.05v-.12s.11-.26.11-.28Zm-30.94-37.33 1.35-1.36a.36.36 0 0 0-.51-.51l-1.6 1.62v.25l1.6 1.63a.35.35 0 0 0 .26.1.35.35 0 0 0 .25-.1.36.36 0 0 0 0-.51Zm4.61-1.94a.31.31 0 0 0-.41.17l-1.4 3.32a.31.31 0 0 0 .17.41h.12a.31.31 0 0 0 .29-.19l1.39-3.32a.3.3 0 0 0-.21-.36Zm3 1.86a.33.33 0 0 1 0-.06l-1.6-1.62a.36.36 0 0 0-.51.51l1.35 1.36-1.35 1.37a.36.36 0 0 0 0 .51.37.37 0 0 0 .26.1.33.33 0 0 0 .25-.1l1.6-1.63v-.19l-.08-.22Zm8.24 23.26 1.35-1.36a.36.36 0 0 0-.51-.51l-1.6 1.62v.12l1.6 1.63a.35.35 0 0 0 .26.1.35.35 0 0 0 .25-.1.37.37 0 0 0 0-.52Zm4.61-1.94a.31.31 0 0 0-.41.17l-1.4 3.32a.31.31 0 0 0 .17.41h.12a.31.31 0 0 0 .29-.19l1.39-3.32a.3.3 0 0 0-.24-.36Zm3 1.86a.33.33 0 0 1 0-.06l-1.6-1.62a.36.36 0 0 0-.51.51l1.35 1.36-1.35 1.36a.37.37 0 0 0 0 .52.37.37 0 0 0 .26.1.33.33 0 0 0 .25-.1l1.6-1.63v-.14l-.11-.27Zm-33.33 22.66 1.35-1.36a.37.37 0 0 0 0-.52.38.38 0 0 0-.51 0l-1.72 1.62v.16l1.61 1.62a.35.35 0 0 0 .26.1.36.36 0 0 0 .25-.61Zm4.61-1.94a.3.3 0 0 0-.41.16l-1.4 3.32a.31.31 0 0 0 .17.41.22.22 0 0 0 .11 0 .33.33 0 0 0 .3-.18l1.39-3.33a.3.3 0 0 0-.27-.35Zm3 1.91v-.06l-1.6-1.63a.38.38 0 0 0-.51 0 .37.37 0 0 0 0 .52l1.35 1.36-1.35 1.36a.36.36 0 0 0 0 .51.35.35 0 0 0 .25.1.35.35 0 0 0 .26-.1l1.6-1.62v-.12s-.14-.28-.14-.29Zm33.78 4.22a.38.38 0 0 0-.51 0l-1.6 1.63v.12l.24.24h1l-.47-.47 1.2-.97a.36.36 0 0 0 0-.52Zm3.27-.07a.33.33 0 0 0-.42.17l-.92 2.18h.68l.81-1.92a.31.31 0 0 0-.29-.4Zm3 1.86a.09.09 0 0 1 0-.05v-.1l-1.91-1.61a.4.4 0 0 0-.52 0 .36.36 0 0 0 0 .51l1.35 1.37-.3.3h1.07v-.05a.11.11 0 0 1 0-.05v-.16ZM590.61 213a.36.36 0 0 0-.43-.28l-1.87.41-.43-1.87a.35.35 0 0 0-.43-.27.38.38 0 0 0-.28.43l.51 2.22a.08.08 0 0 0 0 .05v.05h.14l2.23-.48a.37.37 0 0 0 .22-.17.33.33 0 0 0 .34-.09Zm1-1.76-2.06-3a.31.31 0 0 0-.43-.08.32.32 0 0 0-.08.44l2.05 3a.31.31 0 0 0 .44.07.3.3 0 0 0 .08-.08.34.34 0 0 0 .02-.36Zm1.41-2.07-.51-2.22a.07.07 0 0 0 0-.05h-.21l-2.23.48a.38.38 0 0 0-.27.43.36.36 0 0 0 .43.28l1.87-.41.43 1.87a.36.36 0 0 0 .43.28.34.34 0 0 0 .22-.17.31.31 0 0 0-.18-.5Zm14.24 28.5-1.87.41-.39-1.88a.36.36 0 1 0-.71.16l.51 2.22v.06h.13l2.23-.48a.4.4 0 0 0 .23-.17.36.36 0 0 0-.39-.54Zm1.45-1.48-2.06-3a.3.3 0 0 0-.42-.08.31.31 0 0 0-.09.43l2.06 3a.29.29 0 0 0 .43.08.15.15 0 0 0 .08-.08.32.32 0 0 0 .02-.36Zm1.42-2.07-.51-2.22v-.05h-.2l-2.23.48a.38.38 0 0 0-.28.43.37.37 0 0 0 .43.28l1.88-.41.42 1.87a.35.35 0 0 0 .43.27.32.32 0 0 0 .23-.16.35.35 0 0 0-.15-.5Zm-30 16.84-.9-1.3v1l.44.63a.31.31 0 0 0 .43.08.17.17 0 0 0 .08-.09.3.3 0 0 0-.02-.28Zm1.42-2.07-.51-2.22v-.06a.17.17 0 0 1 0-.05h-.19l-1.18.25q0 .39-.06.75l1-.22.42 1.86a.37.37 0 0 0 .43.28.39.39 0 0 0 .23-.16.37.37 0 0 0-.11-.44Z"/><path style="fill:#f7a9a0;opacity:1" transform="translate(-394 -233)" d="M596 257.86c-2.34 1.93-6.6-4.23-6.6-4.23a5.56 5.56 0 0 1-.92 3.68c-1.37 1.85-4.87.51-4.87.51a6.86 6.86 0 0 1-1.59 3.73c-1.49 1.63-5.21.78-5.21.78a6 6 0 0 1-3.47 2.4c-3.79.81-7.9-3.45-10.55-6.13s-7.63-12.77-8.79-14.6l17.07-17.11s15.27 8.65 17.93 12.24c2.25 3.04 10.56 15.79 7 18.73Z"/><path style="fill:#263238;opacity:1" transform="translate(-394 -233.01)" d="M589.42 253.52a50.22 50.22 0 0 0-6.59-10.44c-.05-.07-.16 0-.11.09 2.49 3.2 4.18 7.15 6.53 10.45.06.09.21.01.17-.1Z"/><path style="fill:#263238;opacity:1" transform="translate(-394 -233)" d="M583.77 257.54a10.8 10.8 0 0 0-1.65-2.27 42 42 0 0 0-2-2.26c-1.33-1.48-2.69-2.93-4.1-4.35-.06-.06-.17 0-.11.09 1.33 1.48 2.63 3 3.88 4.52.63.76 1.26 1.54 1.88 2.32a12.78 12.78 0 0 0 1.84 2.11.14.14 0 0 0 .26-.16Zm-7.02 4.73a7.53 7.53 0 0 0-1.6-2c-.62-.66-1.24-1.33-1.85-2-1.22-1.34-2.45-2.68-3.63-4.06 0-.07-.17 0-.11.09 1.19 1.41 2.36 2.83 3.56 4.23l1.78 2.06a7.05 7.05 0 0 0 1.78 1.71.05.05 0 0 0 .07-.03Z"/><path style="fill:#f7a9a0;opacity:1" transform="translate(-394 -233)" d="M612 184.16c27.82 14 53.62 35.74 53 44.2-.61 8.94-15.82 21.57-30.43 26.22-3 .95-16.52-19.81-13.56-21.41 2.3-1.24 12.84-6.41 13.9-8.17.73-1.23-20.89-22.39-28.79-34.05-8.21-12.21-1.56-10.54 5.88-6.79Z"/><path style="fill:#f7a9a0;opacity:1" transform="translate(-393.99 -233)" d="M627.25 231.35s-9.18 2.65-15.11 4.65c-3.3 1.11-8.8 3.53-10.85 5.46-3.07 2.89-14.07 16.92-10.73 19.66 3 2.48 6-2.84 6-2.84s-3.76 5.51 0 7.05 7-5.75 7-5.75-4.4 5.58-.23 6.83c3.62 1.1 8.17-6.92 8.17-6.92s-5.26 5.35-1.66 6.83c4 1.64 12.3-9.52 12.3-9.52 8.17-.55 13-2 18.35-4.58.9-.5-13.24-20.87-13.24-20.87Z"/><path style="fill:#263238;opacity:1" transform="translate(-394 -233)" d="m602.35 261.38.84-1.68a30 30 0 0 1 1.73-3.21q1-1.5 2-2.91c.75-1 1.61-1.94 2.34-3a.07.07 0 1 1 .11.08 31.87 31.87 0 0 0-2 3.12c-.64 1-1.26 2.07-1.89 3.11s-1.28 2-1.92 3c-.32.5-.61 1-.91 1.52a11.13 11.13 0 0 1-.87 1.45s-.1 0-.09-.06a7.85 7.85 0 0 1 .66-1.42Zm-6.58-1.96a48.93 48.93 0 0 1 3.08-6A33.79 33.79 0 0 1 603 248c0-.06.15 0 .11.08-1.19 1.93-2.41 3.85-3.63 5.76-.59.94-3.16 5.27-3.48 5.69-.1.11-.26.01-.23-.11Zm12.72 3.96a48.56 48.56 0 0 1 3-5.62 44.43 44.43 0 0 1 4.3-4.89c.06-.05.16 0 .11.09-1.3 1.73-2.64 3.43-3.86 5.23-.59.87-2.76 4.49-3.4 5.27-.05.08-.17 0-.15-.08Z"/><path style="fill:#ffc727;opacity:1" transform="translate(-394 -233.01)" d="m643.35 202-16.48 15.46s-17.71-18.99-23.13-28.46-1.24-10.29 9.88-4.7 29.73 17.7 29.73 17.7Z"/><path style="fill:#030402;opacity:.1" transform="translate(-394 -233)" d="M619.24 206.73h-.05l-2.21-.58a.4.4 0 0 0-.19 0c.26.3.51.6.77.89l1.1.28-.19.77c.19.23.39.45.58.67l.39-1.61v-.12s-.19-.3-.2-.3Zm-11.34-23.15a.37.37 0 0 0-.46-.23l-2.16.73h-.05v.05l.7 2.17a.39.39 0 0 0 .19.21.36.36 0 0 0 .27 0 .37.37 0 0 0 .23-.46l-.6-1.82 1.82-.61a.37.37 0 0 0 .06-.04Zm3 1.4a.33.33 0 0 0-.45 0l-2.74 2.35a.31.31 0 0 0 0 .44.31.31 0 0 0 .09.07.32.32 0 0 0 .35 0l2.74-2.34a.33.33 0 0 0-.04-.5Zm1.8 2.8-.7-2.16a.37.37 0 0 0-.46-.23.35.35 0 0 0-.23.45l.6 1.83-1.82.61a.35.35 0 0 0-.23.45.35.35 0 0 0 .18.21.39.39 0 0 0 .28 0l2.16-.73h.05v-.14Zm20.46 16.1a.37.37 0 0 0-.46-.23l-2.16.73v.05L631 207a.33.33 0 0 0 .19.21.36.36 0 0 0 .5-.43l-.6-1.83 1.82-.61a.35.35 0 0 0 .2-.46Zm2.95 1.4a.33.33 0 0 0-.45 0l-2.74 2.34a.31.31 0 0 0 0 .44.23.23 0 0 0 .09.08.34.34 0 0 0 .35 0l2.74-2.35a.31.31 0 0 0-.04-.51Zm1.1.63a.38.38 0 0 0-.46-.23.37.37 0 0 0-.23.46l.57 1.73.58-.54ZM635 209a.41.41 0 0 0 .18.21.38.38 0 0 0 .28 0h.12l1.27-1.19-1.62.54a.37.37 0 0 0-.23.44Zm-11.13-11a.35.35 0 0 0-.43-.27l-1.87.4-.42-1.87a.38.38 0 0 0-.44-.27.36.36 0 0 0-.27.43l.51 2.22a.43.43 0 0 0 0 .05v.05h.17l2.23-.48a.38.38 0 0 0 .23-.16.36.36 0 0 0 .31-.1Zm1-1.76-2.06-3a.3.3 0 0 0-.42-.08.32.32 0 0 0-.09.44l2.06 3a.3.3 0 0 0 .43.07.15.15 0 0 0 .08-.08.32.32 0 0 0 .04-.36Zm1.42-2.06-.51-2.23v-.05h-.2l-2.23.47a.39.39 0 0 0-.28.44.36.36 0 0 0 .43.27l1.88-.41.42 1.87a.37.37 0 0 0 .43.28.39.39 0 0 0 .23-.16.37.37 0 0 0-.13-.49Z"/><path style="fill:#263238;opacity:1" transform="translate(-393.99 -233)" d="M638.63 200A153.73 153.73 0 0 1 625 213.32c-.06.06-.14 0-.08-.09 1.26-1.12 7.86-8.09 13.64-13.29.04-.06.13.06.07.06Z"/><path style="fill:#263238;opacity:1" transform="translate(-394 -233)" d="M627.92 216.37a9.48 9.48 0 0 0-1 .79c-2.72-3.2-2.19-2.45-4.94-5.63l-4-4.68c-1.4-1.62-2.72-3.34-4.2-4.89 0 0-.11 0-.07.06 1 1.61 2.27 3.11 3.46 4.62-.24-.22-.47-.45-.72-.66-.56-.47-1.11-.93-1.63-1.44-.08-.08-.21 0-.13.11.49.49 1 1 1.41 1.52s1 1 1.44 1.5 1 .9 1.49 1.34l.18.16c.76.94 1.51 1.89 2.28 2.81a51.88 51.88 0 0 0 5.38 5.62 10.15 10.15 0 0 0 1.19-1.14.06.06 0 0 0-.14-.09Z"/><path style="fill:#f7a9a0;opacity:1" transform="translate(-394 -233)" d="M596.8 192.78c2.45-.32 6.71-5.74 8-9.91.08-.28-.86-2.92-1.84-6.18-.6-2-1.21-4.19-1.62-6.26L589 176.17a33.57 33.57 0 0 1 2.84 7.67 5.41 5.41 0 0 1 .08.87.71.71 0 0 0 0 .14c.08 1.67 1.08 8.42 4.88 7.93Z"/><path style="fill:#263238;opacity:1" transform="translate(-394 -233)" d="M592 184.71a.74.74 0 0 1 0 .15 9.13 9.13 0 0 0 1.36-.2c7.46-1.67 7.48-11.28 7.34-13.9l-11.7 5.41a33.57 33.57 0 0 1 2.84 7.67 5.52 5.52 0 0 1 .16.87Z"/><path style="fill:#f7a9a0;opacity:1" transform="translate(-394 -233)" d="M602.45 156.54c1.55 4.64-.55 18.22-3.8 21.33-4.7 4.5-12.59 5.13-16.46-.57-3.75-5.52-.7-23.18 2.94-26 5.37-4.2 15.02-1.62 17.32 5.24Z"/><path style="fill:#263238;opacity:1" transform="translate(-394 -233)" d="M590.28 165s.07.06.06.1c-.21.9-.29 2 .47 2.43v.05c-.99-.29-.87-1.71-.53-2.58Z"/><path style="fill:#263238;opacity:1" transform="translate(-393.99 -233)" d="M591.28 164.25c1.48.18 1 3.13-.35 3s-.93-3.14.35-3Z"/><path style="fill:#263238;opacity:1" transform="translate(-394 -233)" d="M585.17 164.08s-.08 0-.09.07c-.11.92-.39 2-1.27 2.13v.06c1.04.01 1.4-1.34 1.36-2.26Z"/><path style="fill:#263238;opacity:1" transform="translate(-394 -233)" d="M584.5 163c-1.46-.34-2 2.6-.68 2.91s1.9-2.62.68-2.91Zm8.15.08c-.38-.16-.71-.38-1.08-.58a2 2 0 0 1-1-.8.63.63 0 0 1 .22-.74 1.59 1.59 0 0 1 1.59.08 2.3 2.3 0 0 1 1.15 1.19.67.67 0 0 1-.88.85Zm-9.11-3.03c.42 0 .81-.08 1.22-.13a1.93 1.93 0 0 0 1.22-.36.63.63 0 0 0 .08-.77 1.56 1.56 0 0 0-1.49-.53 2.35 2.35 0 0 0-1.53.66.68.68 0 0 0 .5 1.13Zm6.27 13.68c-.25.18-.52.44-.85.42a2.47 2.47 0 0 1-1-.38 1.26 1.26 0 0 0 1.09.67 1 1 0 0 0 .84-.7c.02-.01-.04-.04-.08-.01Z"/><path style="fill:#263238;opacity:1" transform="translate(-394 -233)" d="M589.27 170.84a3.15 3.15 0 0 1-2.29 1.07 3.93 3.93 0 0 1-1.13-.13l-.21-.05-.2-.07a.22.22 0 0 1-.15-.23s0-.07 0-.1v-.08c.09-.71.32-1.77.32-1.77-.27.09-1.68.47-1.6.11a46.9 46.9 0 0 1 2.67-9.24c0-.1.18 0 .16 0-.51 2.93-1.54 5.75-2.1 8.68a5.84 5.84 0 0 1 1.54-.22c.1 0-.49 2-.5 2.36a4.42 4.42 0 0 0 3.38-.5c.11.03.18.11.11.17Z"/><path style="fill:#263238;opacity:1" transform="translate(-393.99 -233)" d="M586.32 171.49a3.73 3.73 0 0 0 1.3 1.38 1.7 1.7 0 0 0 1 .22c.76-.08.89-.75.84-1.35a4.35 4.35 0 0 0-.19-.92 4.85 4.85 0 0 1-2.95.67Z"/><path style="fill:#ff9bbc;opacity:1" transform="translate(-393.99 -233)" d="M587.62 172.87a1.7 1.7 0 0 0 1 .22c.76-.08.89-.75.84-1.35a1.75 1.75 0 0 0-1.84 1.13Z"/><path style="fill:#263238;opacity:1" transform="translate(-394 -233)" d="M601.91 168.84s4.92-8.11 4.47-12.8c-.21-2.12-3.1-3.55-3.1-3.55a4.78 4.78 0 0 0-1.51-4.82c-2.5-2.36-8.57-1.84-8.57-1.84s-3.94-5.69-9.51-3.44-1.94 8.57-1.94 8.57-2 2.9 2.94 5.17 14.8 0 14.8 0a34.6 34.6 0 0 0 .14 10.29 3.16 3.16 0 0 0 2.28 2.42Z"/><path style="fill:#263238;opacity:1" transform="translate(-394 -233)" d="M592.23 145.91a9.74 9.74 0 0 1 3.92-.72 10.56 10.56 0 0 1 3.53.56 5.86 5.86 0 0 1 4.12 4.4 4.1 4.1 0 0 1-.78 3.08s-.08 0 0 0c1.29-1.59.61-4.07-.72-5.41a8.77 8.77 0 0 0-5.87-2.17 17.19 17.19 0 0 0-4.11.43.06.06 0 0 1-.09-.17Z"/><path style="fill:#263238;opacity:1" transform="translate(-393.99 -233)" d="M579.71 145.08a4.76 4.76 0 0 1 3.3-3 8.14 8.14 0 0 1 5.27.19 10.21 10.21 0 0 1 4.31 3.2s0 .07-.05 0a9 9 0 0 0-8.61-3.2 4.39 4.39 0 0 0-3.44 6.56 9.13 9.13 0 0 0 3.57 3.59v.06a9.46 9.46 0 0 1-3.56-3 5.33 5.33 0 0 1-.79-4.4Z"/><path style="fill:#455a64;opacity:1" transform="translate(-394 -233)" d="M590.19 170.43a4 4 0 0 1-2.53-5.1 4 4 0 1 1 3.51 5.3 4.16 4.16 0 0 1-.98-.2Zm-2-4.93a3.48 3.48 0 1 0 4.41-2.19 3.21 3.21 0 0 0-.85-.17 3.47 3.47 0 0 0-3.58 2.36Z"/><path style="fill:#455a64;opacity:1" transform="translate(-393.99 -233)" d="M581.85 168.78c-1.62-.31-2.59-2.34-2.17-4.52a4.82 4.82 0 0 1 1.37-2.6 2.5 2.5 0 0 1 4.21.82 4.76 4.76 0 0 1 .3 2.92c-.4 2.06-1.91 3.53-3.45 3.42Zm-.43-6.73a4.26 4.26 0 0 0-1.21 2.31c-.37 1.89.41 3.63 1.74 3.89s2.71-1.06 3.08-2.95a4.23 4.23 0 0 0-.26-2.59 2.12 2.12 0 0 0-1.49-1.3h-.2a2.2 2.2 0 0 0-1.66.64Z"/><path style="fill:#455a64;opacity:1" transform="translate(-394 -233)" d="m587.7 165.81.42-.34c-.5-.61-1.76-1.56-2.92-.72l.31.44c1.05-.76 2.14.57 2.19.62Z"/><path style="fill:#455a64;opacity:1" transform="translate(-393.99 -233.01)" d="m605.1 170.25.52-.15c-.07-.24-.73-2.37-1.87-2.79s-8.27-1.1-8.58-1.13v.54c2.07.2 7.62.79 8.45 1.1s1.31 1.85 1.48 2.43Z"/><path style="fill:#f7a9a0;opacity:1" transform="translate(-394 -233)" d="M599.86 167.63s3-4.39 5-3.32-.27 7.44-2.59 8.32a2.37 2.37 0 0 1-3.18-1.25Z"/><path style="fill:#263238;opacity:1" transform="translate(-394 -233)" d="M604.18 166.12s.05 0 0 .06a6 6 0 0 0-3.07 3.77 1.3 1.3 0 0 1 2-.37s0 .1 0 .09a1.45 1.45 0 0 0-1.6.52 7 7 0 0 0-.76 1.3c-.08.15-.34.07-.28-.1-.12-2.12 1.53-5.04 3.71-5.27Zm1.82 18.15a44.73 44.73 0 0 1-3.36 6.07 10 10 0 0 1-5 3.94c-2 .57-4.12.54-5.35-1.83a15.45 15.45 0 0 1-1.29-6.55.08.08 0 1 0-.16 0c.16 3.36.62 8.53 3.8 9.11 3.56.64 6.5-1.69 8.4-4.43a32.59 32.59 0 0 0 3.09-6.29s-.07-.06-.13-.02Z"/><rect style="fill:#c7c7c7;opacity:1" x="-31.97" y="-1.43" rx="0" ry="0" width="63.94" height="2.86" transform="translate(204.28 32.59)"/><path style="fill:#a6a6a6;opacity:1" transform="translate(194.04 32.59)" d="M-21.73-1.43v2.86h43.46l-2.19-2.86h-41.27z"/><path style="fill:#c7c7c7;opacity:1" transform="translate(177.07 12.86)" d="M33.75 21.16h-62.31l-5.19-42.32h62.31l5.19 42.32z"/></svg>